# MagicaVoxel @ Ephtracy

# material
mtllib bus.mtl
usemtl palette

# normals
vn -1 0 0
vn 1 0 0
vn 0 0 1
vn 0 0 -1
vn 0 -1 0
vn 0 1 0

# texcoords
vt 0.119141 0.5
vt 0.123047 0.5
vt 0.173828 0.5
vt 0.181641 0.5
vt 0.412109 0.5
vt 0.466797 0.5
vt 0.681641 0.5

# verts
v -51 8 20
v -51 8 -20
v -51 44 20
v -51 44 -20
v -48 44 15
v -48 44 -15
v -48 48 15
v -48 48 -15
v -43 0 20
v -43 0 15
v -43 0 -15
v -43 0 -20
v -43 8 20
v -43 8 15
v -43 8 -15
v -43 8 -20
v 27 0 20
v 27 0 15
v 27 0 -15
v 27 0 -20
v 27 8 20
v 27 8 15
v 27 8 -15
v 27 8 -20
v 45 26 30
v 45 26 25
v 45 26 -24
v 45 26 -29
v 45 32 25
v 45 32 20
v 45 32 -20
v 45 32 -24
v 45 34 30
v 45 34 20
v 45 34 -20
v 45 34 -29
v -28 0 20
v -28 0 15
v -28 0 -15
v -28 0 -20
v -28 8 20
v -28 8 15
v -28 8 -15
v -28 8 -20
v 37 44 15
v 37 44 -15
v 37 48 15
v 37 48 -15
v 42 0 20
v 42 0 15
v 42 0 -15
v 42 0 -20
v 42 8 20
v 42 8 15
v 42 8 -15
v 42 8 -20
v 46 8 20
v 46 8 -20
v 46 13 20
v 46 13 -20
v 46 22 15
v 46 22 -15
v 46 34 15
v 46 34 -15
v 46 41 20
v 46 41 -20
v 46 44 20
v 46 44 -20
v 49 26 30
v 49 26 25
v 49 26 -24
v 49 26 -29
v 49 28 28
v 49 28 27
v 49 28 -26
v 49 28 -27
v 49 32 28
v 49 32 27
v 49 32 25
v 49 32 20
v 49 32 -20
v 49 32 -24
v 49 32 -26
v 49 32 -27
v 49 34 30
v 49 34 20
v 49 34 -20
v 49 34 -29
v 50 15 15
v 50 15 10
v 50 15 -10
v 50 15 -15
v 50 20 15
v 50 20 10
v 50 20 -10
v 50 20 -15
v 51 13 20
v 51 13 -20
v 51 15 15
v 51 15 10
v 51 15 -10
v 51 15 -15
v 51 20 15
v 51 20 10
v 51 20 -10
v 51 20 -15
v 51 22 15
v 51 22 -15
v 51 34 15
v 51 34 -15
v 51 41 20
v 51 41 -20
v 45 26 30
v 45 34 30
v 49 26 30
v 49 34 30
v -51 8 20
v -51 44 20
v -48 19 20
v -48 20 20
v -48 24 20
v -48 25 20
v -48 29 20
v -48 30 20
v -48 34 20
v -48 35 20
v -43 0 20
v -43 8 20
v -38 5 20
v -38 7 20
v -33 5 20
v -33 7 20
v -28 0 20
v -28 8 20
v 27 0 20
v 27 8 20
v 32 5 20
v 32 7 20
v 37 5 20
v 37 7 20
v 42 0 20
v 42 8 20
v 42 19 20
v 42 20 20
v 42 24 20
v 42 25 20
v 42 29 20
v 42 30 20
v 42 34 20
v 42 35 20
v 45 32 20
v 45 34 20
v 46 8 20
v 46 13 20
v 46 41 20
v 46 44 20
v 49 32 20
v 49 34 20
v 51 13 20
v 51 41 20
v -48 44 15
v -48 48 15
v 37 44 15
v 37 48 15
v 50 15 10
v 50 20 10
v 51 15 10
v 51 20 10
v -43 0 -15
v -43 8 -15
v -38 5 -15
v -38 7 -15
v -33 5 -15
v -33 7 -15
v -28 0 -15
v -28 8 -15
v 27 0 -15
v 27 8 -15
v 32 5 -15
v 32 7 -15
v 37 5 -15
v 37 7 -15
v 42 0 -15
v 42 8 -15
v 46 22 -15
v 46 34 -15
v 50 15 -15
v 50 20 -15
v 51 15 -15
v 51 20 -15
v 51 22 -15
v 51 34 -15
v 45 26 -24
v 45 32 -24
v 49 26 -24
v 49 32 -24
v 45 26 25
v 45 32 25
v 49 26 25
v 49 32 25
v -43 0 15
v -43 8 15
v -38 5 15
v -38 7 15
v -33 5 15
v -33 7 15
v -28 0 15
v -28 8 15
v 27 0 15
v 27 8 15
v 32 5 15
v 32 7 15
v 37 5 15
v 37 7 15
v 42 0 15
v 42 8 15
v 46 22 15
v 46 34 15
v 50 15 15
v 50 20 15
v 51 15 15
v 51 20 15
v 51 22 15
v 51 34 15
v 50 15 -10
v 50 20 -10
v 51 15 -10
v 51 20 -10
v -48 44 -15
v -48 48 -15
v 37 44 -15
v 37 48 -15
v -51 8 -20
v -51 44 -20
v -48 19 -20
v -48 20 -20
v -48 24 -20
v -48 25 -20
v -48 29 -20
v -48 30 -20
v -48 34 -20
v -48 35 -20
v -43 0 -20
v -43 8 -20
v -38 5 -20
v -38 7 -20
v -33 5 -20
v -33 7 -20
v -28 0 -20
v -28 8 -20
v 27 0 -20
v 27 8 -20
v 32 5 -20
v 32 7 -20
v 37 5 -20
v 37 7 -20
v 42 0 -20
v 42 8 -20
v 42 19 -20
v 42 20 -20
v 42 24 -20
v 42 25 -20
v 42 29 -20
v 42 30 -20
v 42 34 -20
v 42 35 -20
v 45 32 -20
v 45 34 -20
v 46 8 -20
v 46 13 -20
v 46 41 -20
v 46 44 -20
v 49 32 -20
v 49 34 -20
v 51 13 -20
v 51 41 -20
v 45 26 -29
v 45 34 -29
v 49 26 -29
v 49 34 -29
v -43 0 20
v -28 0 20
v 27 0 20
v 42 0 20
v -43 0 15
v -28 0 15
v 27 0 15
v 42 0 15
v -43 0 -15
v -28 0 -15
v 27 0 -15
v 42 0 -15
v -43 0 -20
v -28 0 -20
v 27 0 -20
v 42 0 -20
v -51 8 20
v -43 8 20
v -28 8 20
v 27 8 20
v 42 8 20
v 46 8 20
v -43 8 15
v -28 8 15
v 27 8 15
v 42 8 15
v -43 8 -15
v -28 8 -15
v 27 8 -15
v 42 8 -15
v -51 8 -20
v -43 8 -20
v -28 8 -20
v 27 8 -20
v 42 8 -20
v 46 8 -20
v 46 13 20
v 51 13 20
v 46 13 -20
v 51 13 -20
v 50 20 15
v 51 20 15
v 50 20 10
v 51 20 10
v 50 20 -10
v 51 20 -10
v 50 20 -15
v 51 20 -15
v 45 26 30
v 49 26 30
v 45 26 25
v 49 26 25
v 45 26 -24
v 49 26 -24
v 45 26 -29
v 49 26 -29
v 45 32 25
v 49 32 25
v 45 32 20
v 49 32 20
v 45 32 -20
v 49 32 -20
v 45 32 -24
v 49 32 -24
v 46 34 15
v 51 34 15
v 46 34 -15
v 51 34 -15
v 50 15 15
v 51 15 15
v 50 15 10
v 51 15 10
v 50 15 -10
v 51 15 -10
v 50 15 -15
v 51 15 -15
v 46 22 15
v 51 22 15
v 46 22 -15
v 51 22 -15
v 45 34 30
v 49 34 30
v 45 34 20
v 49 34 20
v 45 34 -20
v 49 34 -20
v 45 34 -29
v 49 34 -29
v 46 41 20
v 51 41 20
v 46 41 -20
v 51 41 -20
v -51 44 20
v 46 44 20
v -48 44 15
v 37 44 15
v -48 44 -15
v 37 44 -15
v -51 44 -20
v 46 44 -20
v -48 48 15
v 37 48 15
v -48 48 -15
v 37 48 -15

# faces
f 3/3/1 2/3/1 1/3/1
f 4/3/1 2/3/1 3/3/1
f 7/3/1 6/3/1 5/3/1
f 8/3/1 6/3/1 7/3/1
f 13/6/1 10/6/1 9/6/1
f 14/6/1 10/6/1 13/6/1
f 15/6/1 12/6/1 11/6/1
f 16/6/1 12/6/1 15/6/1
f 21/6/1 18/6/1 17/6/1
f 22/6/1 18/6/1 21/6/1
f 23/6/1 20/6/1 19/6/1
f 24/6/1 20/6/1 23/6/1
f 29/6/1 26/6/1 25/6/1
f 32/6/1 28/6/1 27/6/1
f 33/6/1 30/6/1 29/6/1
f 33/6/1 29/6/1 25/6/1
f 34/6/1 30/6/1 33/6/1
f 35/6/1 32/6/1 31/6/1
f 36/6/1 28/6/1 32/6/1
f 36/6/1 32/6/1 35/6/1
f 37/6/2 38/6/2 41/6/2
f 41/6/2 38/6/2 42/6/2
f 39/6/2 40/6/2 43/6/2
f 43/6/2 40/6/2 44/6/2
f 45/3/2 46/3/2 47/3/2
f 47/3/2 46/3/2 48/3/2
f 49/6/2 50/6/2 53/6/2
f 53/6/2 50/6/2 54/6/2
f 51/6/2 52/6/2 55/6/2
f 55/6/2 52/6/2 56/6/2
f 57/3/2 58/3/2 59/3/2
f 59/3/2 58/3/2 60/3/2
f 61/7/2 62/7/2 63/7/2
f 63/7/2 62/7/2 64/7/2
f 65/3/2 66/3/2 67/3/2
f 67/3/2 66/3/2 68/3/2
f 69/6/2 70/6/2 73/6/2
f 73/6/2 70/6/2 74/6/2
f 71/6/2 72/6/2 75/6/2
f 75/6/2 72/6/2 76/6/2
f 69/6/2 73/6/2 77/6/2
f 73/4/2 74/4/2 77/4/2
f 74/6/2 70/6/2 78/6/2
f 77/4/2 74/4/2 78/4/2
f 78/6/2 70/6/2 79/6/2
f 71/6/2 75/6/2 82/6/2
f 75/4/2 76/4/2 83/4/2
f 82/6/2 75/6/2 83/6/2
f 76/6/2 72/6/2 84/6/2
f 83/4/2 76/4/2 84/4/2
f 69/6/2 77/6/2 85/6/2
f 79/6/2 80/6/2 85/6/2
f 77/6/2 78/6/2 85/6/2
f 78/6/2 79/6/2 85/6/2
f 85/6/2 80/6/2 86/6/2
f 82/6/2 83/6/2 87/6/2
f 81/6/2 82/6/2 87/6/2
f 83/6/2 84/6/2 87/6/2
f 84/6/2 72/6/2 88/6/2
f 87/6/2 84/6/2 88/6/2
f 89/5/2 90/5/2 93/5/2
f 93/5/2 90/5/2 94/5/2
f 91/5/2 92/5/2 95/5/2
f 95/5/2 92/5/2 96/5/2
f 97/3/2 98/3/2 99/3/2
f 99/3/2 98/3/2 100/3/2
f 100/3/2 98/3/2 101/3/2
f 101/3/2 98/3/2 102/3/2
f 97/3/2 99/3/2 103/3/2
f 100/3/2 101/3/2 104/3/2
f 104/3/2 101/3/2 105/3/2
f 102/3/2 98/3/2 106/3/2
f 104/3/2 105/3/2 107/3/2
f 105/3/2 106/3/2 107/3/2
f 97/3/2 103/3/2 107/3/2
f 103/3/2 104/3/2 107/3/2
f 106/3/2 98/3/2 108/3/2
f 107/3/2 106/3/2 108/3/2
f 97/3/2 107/3/2 109/3/2
f 108/3/2 98/3/2 110/3/2
f 97/3/2 109/3/2 111/3/2
f 109/3/2 110/3/2 111/3/2
f 110/3/2 98/3/2 112/3/2
f 111/3/2 110/3/2 112/3/2
f 115/6/3 114/6/3 113/6/3
f 116/6/3 114/6/3 115/6/3
f 119/3/3 118/3/3 117/3/3
f 120/3/3 118/3/3 119/3/3
f 121/3/3 118/3/3 120/3/3
f 122/3/3 118/3/3 121/3/3
f 123/3/3 118/3/3 122/3/3
f 124/3/3 118/3/3 123/3/3
f 125/3/3 118/3/3 124/3/3
f 126/3/3 118/3/3 125/3/3
f 128/3/3 119/3/3 117/3/3
f 129/6/3 128/6/3 127/6/3
f 130/6/3 128/6/3 129/6/3
f 131/6/3 129/6/3 127/6/3
f 131/3/3 130/3/3 129/3/3
f 132/6/3 128/6/3 130/6/3
f 132/3/3 130/3/3 131/3/3
f 133/6/3 131/6/3 127/6/3
f 133/6/3 132/6/3 131/6/3
f 134/3/3 119/3/3 128/3/3
f 134/6/3 132/6/3 133/6/3
f 134/6/3 128/6/3 132/6/3
f 136/3/3 119/3/3 134/3/3
f 137/6/3 136/6/3 135/6/3
f 138/6/3 136/6/3 137/6/3
f 139/6/3 137/6/3 135/6/3
f 139/3/3 138/3/3 137/3/3
f 140/6/3 136/6/3 138/6/3
f 140/3/3 138/3/3 139/3/3
f 141/6/3 139/6/3 135/6/3
f 141/6/3 140/6/3 139/6/3
f 142/3/3 119/3/3 136/3/3
f 142/6/3 140/6/3 141/6/3
f 142/6/3 136/6/3 140/6/3
f 143/1/3 120/1/3 119/1/3
f 143/3/3 119/3/3 142/3/3
f 144/3/3 121/3/3 120/3/3
f 144/1/3 120/1/3 143/1/3
f 145/2/3 122/2/3 121/2/3
f 145/3/3 121/3/3 144/3/3
f 146/3/3 123/3/3 122/3/3
f 146/2/3 122/2/3 145/2/3
f 147/1/3 124/1/3 123/1/3
f 147/3/3 123/3/3 146/3/3
f 148/3/3 125/3/3 124/3/3
f 148/1/3 124/1/3 147/1/3
f 149/2/3 126/2/3 125/2/3
f 149/3/3 125/3/3 148/3/3
f 150/3/3 118/3/3 126/3/3
f 150/2/3 126/2/3 149/2/3
f 151/3/3 149/3/3 148/3/3
f 151/3/3 150/3/3 149/3/3
f 151/3/3 143/3/3 142/3/3
f 151/3/3 144/3/3 143/3/3
f 151/3/3 145/3/3 144/3/3
f 151/3/3 146/3/3 145/3/3
f 151/3/3 148/3/3 147/3/3
f 151/3/3 147/3/3 146/3/3
f 152/3/3 150/3/3 151/3/3
f 153/3/3 151/3/3 142/3/3
f 154/3/3 151/3/3 153/3/3
f 155/3/3 118/3/3 150/3/3
f 155/3/3 150/3/3 152/3/3
f 156/3/3 118/3/3 155/3/3
f 157/3/3 151/3/3 154/3/3
f 158/3/3 155/3/3 152/3/3
f 159/3/3 157/3/3 154/3/3
f 159/3/3 158/3/3 157/3/3
f 160/3/3 155/3/3 158/3/3
f 160/3/3 158/3/3 159/3/3
f 163/3/3 162/3/3 161/3/3
f 164/3/3 162/3/3 163/3/3
f 167/3/3 166/3/3 165/3/3
f 168/3/3 166/3/3 167/3/3
f 171/6/3 170/6/3 169/6/3
f 172/6/3 170/6/3 171/6/3
f 173/6/3 171/6/3 169/6/3
f 173/3/3 172/3/3 171/3/3
f 174/6/3 170/6/3 172/6/3
f 174/3/3 172/3/3 173/3/3
f 175/6/3 173/6/3 169/6/3
f 175/6/3 174/6/3 173/6/3
f 176/6/3 170/6/3 174/6/3
f 176/6/3 174/6/3 175/6/3
f 179/6/3 178/6/3 177/6/3
f 180/6/3 178/6/3 179/6/3
f 181/6/3 179/6/3 177/6/3
f 181/3/3 180/3/3 179/3/3
f 182/6/3 178/6/3 180/6/3
f 182/3/3 180/3/3 181/3/3
f 183/6/3 181/6/3 177/6/3
f 183/6/3 182/6/3 181/6/3
f 184/6/3 178/6/3 182/6/3
f 184/6/3 182/6/3 183/6/3
f 189/3/3 188/3/3 187/3/3
f 190/3/3 188/3/3 189/3/3
f 191/3/3 186/3/3 185/3/3
f 192/3/3 186/3/3 191/3/3
f 195/6/3 194/6/3 193/6/3
f 196/6/3 194/6/3 195/6/3
f 197/6/4 198/6/4 199/6/4
f 199/6/4 198/6/4 200/6/4
f 201/6/4 202/6/4 203/6/4
f 203/6/4 202/6/4 204/6/4
f 201/6/4 203/6/4 205/6/4
f 203/3/4 204/3/4 205/3/4
f 204/6/4 202/6/4 206/6/4
f 205/3/4 204/3/4 206/3/4
f 201/6/4 205/6/4 207/6/4
f 205/6/4 206/6/4 207/6/4
f 206/6/4 202/6/4 208/6/4
f 207/6/4 206/6/4 208/6/4
f 209/6/4 210/6/4 211/6/4
f 211/6/4 210/6/4 212/6/4
f 209/6/4 211/6/4 213/6/4
f 211/3/4 212/3/4 213/3/4
f 212/6/4 210/6/4 214/6/4
f 213/3/4 212/3/4 214/3/4
f 209/6/4 213/6/4 215/6/4
f 213/6/4 214/6/4 215/6/4
f 214/6/4 210/6/4 216/6/4
f 215/6/4 214/6/4 216/6/4
f 219/3/4 220/3/4 221/3/4
f 221/3/4 220/3/4 222/3/4
f 217/3/4 218/3/4 223/3/4
f 223/3/4 218/3/4 224/3/4
f 225/3/4 226/3/4 227/3/4
f 227/3/4 226/3/4 228/3/4
f 229/3/4 230/3/4 231/3/4
f 231/3/4 230/3/4 232/3/4
f 233/3/4 234/3/4 235/3/4
f 235/3/4 234/3/4 236/3/4
f 236/3/4 234/3/4 237/3/4
f 237/3/4 234/3/4 238/3/4
f 238/3/4 234/3/4 239/3/4
f 239/3/4 234/3/4 240/3/4
f 240/3/4 234/3/4 241/3/4
f 241/3/4 234/3/4 242/3/4
f 233/3/4 235/3/4 244/3/4
f 243/6/4 244/6/4 245/6/4
f 245/6/4 244/6/4 246/6/4
f 243/6/4 245/6/4 247/6/4
f 245/3/4 246/3/4 247/3/4
f 246/6/4 244/6/4 248/6/4
f 247/3/4 246/3/4 248/3/4
f 243/6/4 247/6/4 249/6/4
f 247/6/4 248/6/4 249/6/4
f 244/3/4 235/3/4 250/3/4
f 249/6/4 248/6/4 250/6/4
f 248/6/4 244/6/4 250/6/4
f 250/3/4 235/3/4 252/3/4
f 251/6/4 252/6/4 253/6/4
f 253/6/4 252/6/4 254/6/4
f 251/6/4 253/6/4 255/6/4
f 253/3/4 254/3/4 255/3/4
f 254/6/4 252/6/4 256/6/4
f 255/3/4 254/3/4 256/3/4
f 251/6/4 255/6/4 257/6/4
f 255/6/4 256/6/4 257/6/4
f 252/3/4 235/3/4 258/3/4
f 257/6/4 256/6/4 258/6/4
f 256/6/4 252/6/4 258/6/4
f 235/1/4 236/1/4 259/1/4
f 258/3/4 235/3/4 259/3/4
f 236/3/4 237/3/4 260/3/4
f 259/1/4 236/1/4 260/1/4
f 237/2/4 238/2/4 261/2/4
f 260/3/4 237/3/4 261/3/4
f 238/3/4 239/3/4 262/3/4
f 261/2/4 238/2/4 262/2/4
f 239/1/4 240/1/4 263/1/4
f 262/3/4 239/3/4 263/3/4
f 240/3/4 241/3/4 264/3/4
f 263/1/4 240/1/4 264/1/4
f 241/2/4 242/2/4 265/2/4
f 264/3/4 241/3/4 265/3/4
f 242/3/4 234/3/4 266/3/4
f 265/2/4 242/2/4 266/2/4
f 264/3/4 265/3/4 267/3/4
f 265/3/4 266/3/4 267/3/4
f 258/3/4 259/3/4 267/3/4
f 259/3/4 260/3/4 267/3/4
f 260/3/4 261/3/4 267/3/4
f 261/3/4 262/3/4 267/3/4
f 263/3/4 264/3/4 267/3/4
f 262/3/4 263/3/4 267/3/4
f 267/3/4 266/3/4 268/3/4
f 258/3/4 267/3/4 269/3/4
f 269/3/4 267/3/4 270/3/4
f 266/3/4 234/3/4 271/3/4
f 268/3/4 266/3/4 271/3/4
f 271/3/4 234/3/4 272/3/4
f 270/3/4 267/3/4 273/3/4
f 268/3/4 271/3/4 274/3/4
f 270/3/4 273/3/4 275/3/4
f 273/3/4 274/3/4 275/3/4
f 274/3/4 271/3/4 276/3/4
f 275/3/4 274/3/4 276/3/4
f 277/6/4 278/6/4 279/6/4
f 279/6/4 278/6/4 280/6/4
f 285/6/5 282/6/5 281/6/5
f 286/6/5 282/6/5 285/6/5
f 287/6/5 284/6/5 283/6/5
f 288/6/5 284/6/5 287/6/5
f 293/6/5 290/6/5 289/6/5
f 294/6/5 290/6/5 293/6/5
f 295/6/5 292/6/5 291/6/5
f 296/6/5 292/6/5 295/6/5
f 303/3/5 298/3/5 297/3/5
f 304/3/5 300/3/5 299/3/5
f 305/3/5 300/3/5 304/3/5
f 306/3/5 302/3/5 301/3/5
f 307/3/5 305/3/5 304/3/5
f 307/3/5 306/3/5 305/3/5
f 307/3/5 303/3/5 297/3/5
f 307/3/5 304/3/5 303/3/5
f 308/3/5 306/3/5 307/3/5
f 309/3/5 306/3/5 308/3/5
f 310/3/5 302/3/5 306/3/5
f 310/3/5 306/3/5 309/3/5
f 311/3/5 307/3/5 297/3/5
f 312/3/5 307/3/5 311/3/5
f 313/3/5 309/3/5 308/3/5
f 314/3/5 309/3/5 313/3/5
f 315/3/5 302/3/5 310/3/5
f 316/3/5 302/3/5 315/3/5
f 319/3/5 318/3/5 317/3/5
f 320/3/5 318/3/5 319/3/5
f 323/3/5 322/3/5 321/3/5
f 324/3/5 322/3/5 323/3/5
f 327/3/5 326/3/5 325/3/5
f 328/3/5 326/3/5 327/3/5
f 331/6/5 330/6/5 329/6/5
f 332/6/5 330/6/5 331/6/5
f 335/6/5 334/6/5 333/6/5
f 336/6/5 334/6/5 335/6/5
f 339/6/5 338/6/5 337/6/5
f 340/6/5 338/6/5 339/6/5
f 343/6/5 342/6/5 341/6/5
f 344/6/5 342/6/5 343/6/5
f 347/3/5 346/3/5 345/3/5
f 348/3/5 346/3/5 347/3/5
f 349/3/6 350/3/6 351/3/6
f 351/3/6 350/3/6 352/3/6
f 353/3/6 354/3/6 355/3/6
f 355/3/6 354/3/6 356/3/6
f 357/3/6 358/3/6 359/3/6
f 359/3/6 358/3/6 360/3/6
f 361/6/6 362/6/6 363/6/6
f 363/6/6 362/6/6 364/6/6
f 365/6/6 366/6/6 367/6/6
f 367/6/6 366/6/6 368/6/6
f 369/3/6 370/3/6 371/3/6
f 371/3/6 370/3/6 372/3/6
f 373/3/6 374/3/6 375/3/6
f 375/3/6 374/3/6 376/3/6
f 373/3/6 375/3/6 377/3/6
f 376/3/6 374/3/6 378/3/6
f 373/3/6 377/3/6 379/3/6
f 377/3/6 378/3/6 379/3/6
f 378/3/6 374/3/6 380/3/6
f 379/3/6 378/3/6 380/3/6
f 381/3/6 382/3/6 383/3/6
f 383/3/6 382/3/6 384/3/6
