# MagicaVoxel @ Ephtracy

# material
mtllib Cafe_Area.mtl
usemtl palette

# normals
vn -1 0 0
vn 1 0 0
vn 0 0 1
vn 0 0 -1
vn 0 -1 0
vn 0 1 0

# texcoords
vt 0.185547 0.5
vt 0.466797 0.5
vt 0.490234 0.5
vt 0.498047 0.5

# verts
v -27.5 0 27.5
v -27.5 0 -27.5
v -27.5 5 27.5
v -27.5 5 -27.5
v -26.5 5 26.5
v -26.5 5 -25.5
v -26.5 8 26.5
v -26.5 8 -25.5
v -18.5 0 12.5
v -18.5 0 9.5
v -18.5 3 12.5
v -18.5 3 9.5
v -15.5 0 -13.5
v -15.5 0 -16.5
v -15.5 3 -13.5
v -15.5 3 -16.5
v -14.5 0 12.5
v -14.5 0 9.5
v -14.5 1 12.5
v -14.5 1 9.5
v -12.5 1 12.5
v -12.5 1 9.5
v -12.5 3 12.5
v -12.5 3 9.5
v -12.5 5 -22.5
v -12.5 5 -24.5
v -12.5 8 -22.5
v -12.5 8 -24.5
v -11.5 0 -13.5
v -11.5 0 -16.5
v -11.5 3 -13.5
v -11.5 3 -16.5
v -7.5 0 -13.5
v -7.5 0 -16.5
v -7.5 1 -13.5
v -7.5 1 -16.5
v -6.5 0 0.5
v -6.5 0 -2.5
v -6.5 0 -3.5
v -6.5 0 -6.5
v -6.5 1 -0.5
v -6.5 1 -2.5
v -6.5 3 0.5
v -6.5 3 -0.5
v -6.5 3 -3.5
v -6.5 3 -6.5
v -5.5 1 -13.5
v -5.5 1 -16.5
v -5.5 3 -13.5
v -5.5 3 -16.5
v -1.5 0 15.5
v -1.5 0 12.5
v -1.5 0 11.5
v -1.5 0 8.5
v -1.5 0 7.5
v -1.5 0 4.5
v -1.5 1 14.5
v -1.5 1 12.5
v -1.5 1 7.5
v -1.5 1 5.5
v -1.5 3 15.5
v -1.5 3 14.5
v -1.5 3 11.5
v -1.5 3 8.5
v -1.5 3 5.5
v -1.5 3 4.5
v 8.5 0 18.5
v 8.5 0 15.5
v 8.5 3 18.5
v 8.5 3 15.5
v 12.5 0 18.5
v 12.5 0 15.5
v 12.5 3 18.5
v 12.5 3 15.5
v 13.5 0 6.5
v 13.5 0 3.5
v 13.5 0 2.5
v 13.5 0 -0.5
v 13.5 0 -9.5
v 13.5 0 -12.5
v 13.5 0 -13.5
v 13.5 0 -16.5
v 13.5 0 -17.5
v 13.5 0 -20.5
v 13.5 1 2.5
v 13.5 1 0.5
v 13.5 1 -10.5
v 13.5 1 -12.5
v 13.5 1 -17.5
v 13.5 1 -19.5
v 13.5 3 6.5
v 13.5 3 3.5
v 13.5 3 0.5
v 13.5 3 -0.5
v 13.5 3 -9.5
v 13.5 3 -10.5
v 13.5 3 -13.5
v 13.5 3 -16.5
v 13.5 3 -19.5
v 13.5 3 -20.5
v 16.5 0 18.5
v 16.5 0 15.5
v 16.5 1 18.5
v 16.5 1 15.5
v 18.5 1 18.5
v 18.5 1 15.5
v 18.5 3 18.5
v 18.5 3 15.5
v 22.5 0 22.5
v 22.5 0 -22.5
v 22.5 5 22.5
v 22.5 5 -22.5
v 25.5 5 25.5
v 25.5 5 -22.5
v 25.5 8 25.5
v 25.5 8 -22.5
v -25.5 5 25.5
v -25.5 5 -24.5
v -25.5 8 25.5
v -25.5 8 -24.5
v -22.5 0 22.5
v -22.5 0 -22.5
v -22.5 5 22.5
v -22.5 5 -22.5
v -15.5 0 12.5
v -15.5 0 9.5
v -15.5 3 12.5
v -15.5 3 9.5
v -14.5 1 -13.5
v -14.5 1 -16.5
v -14.5 3 -13.5
v -14.5 3 -16.5
v -12.5 0 -13.5
v -12.5 0 -16.5
v -12.5 1 -13.5
v -12.5 1 -16.5
v -11.5 0 12.5
v -11.5 0 9.5
v -11.5 3 12.5
v -11.5 3 9.5
v -8.5 0 -13.5
v -8.5 0 -16.5
v -8.5 3 -13.5
v -8.5 3 -16.5
v -4.5 0 -13.5
v -4.5 0 -16.5
v -4.5 3 -13.5
v -4.5 3 -16.5
v -3.5 0 0.5
v -3.5 0 -2.5
v -3.5 0 -3.5
v -3.5 0 -6.5
v -3.5 1 -0.5
v -3.5 1 -2.5
v -3.5 3 0.5
v -3.5 3 -0.5
v -3.5 3 -3.5
v -3.5 3 -6.5
v 1.5 0 15.5
v 1.5 0 12.5
v 1.5 0 11.5
v 1.5 0 8.5
v 1.5 0 7.5
v 1.5 0 4.5
v 1.5 1 14.5
v 1.5 1 12.5
v 1.5 1 7.5
v 1.5 1 5.5
v 1.5 3 15.5
v 1.5 3 14.5
v 1.5 3 11.5
v 1.5 3 8.5
v 1.5 3 5.5
v 1.5 3 4.5
v 9.5 1 18.5
v 9.5 1 15.5
v 9.5 3 18.5
v 9.5 3 15.5
v 11.5 0 18.5
v 11.5 0 15.5
v 11.5 1 18.5
v 11.5 1 15.5
v 15.5 0 18.5
v 15.5 0 15.5
v 15.5 3 18.5
v 15.5 3 15.5
v 16.5 0 6.5
v 16.5 0 3.5
v 16.5 0 2.5
v 16.5 0 -0.5
v 16.5 0 -9.5
v 16.5 0 -12.5
v 16.5 0 -13.5
v 16.5 0 -16.5
v 16.5 0 -17.5
v 16.5 0 -20.5
v 16.5 1 2.5
v 16.5 1 0.5
v 16.5 1 -10.5
v 16.5 1 -12.5
v 16.5 1 -17.5
v 16.5 1 -19.5
v 16.5 3 6.5
v 16.5 3 3.5
v 16.5 3 0.5
v 16.5 3 -0.5
v 16.5 3 -9.5
v 16.5 3 -10.5
v 16.5 3 -13.5
v 16.5 3 -16.5
v 16.5 3 -19.5
v 16.5 3 -20.5
v 19.5 0 18.5
v 19.5 0 15.5
v 19.5 3 18.5
v 19.5 3 15.5
v 26.5 5 26.5
v 26.5 5 -22.5
v 26.5 8 26.5
v 26.5 8 -22.5
v 27.5 0 27.5
v 27.5 0 -27.5
v 27.5 5 27.5
v 27.5 5 -22.5
v 27.5 5 -25.5
v 27.5 5 -27.5
v 27.5 8 -22.5
v 27.5 8 -25.5
v -27.5 0 27.5
v -27.5 5 27.5
v 27.5 0 27.5
v 27.5 5 27.5
v -26.5 5 26.5
v -26.5 8 26.5
v 26.5 5 26.5
v 26.5 8 26.5
v 8.5 0 18.5
v 8.5 3 18.5
v 9.5 1 18.5
v 9.5 3 18.5
v 11.5 0 18.5
v 11.5 1 18.5
v 12.5 0 18.5
v 12.5 3 18.5
v 15.5 0 18.5
v 15.5 3 18.5
v 16.5 0 18.5
v 16.5 1 18.5
v 18.5 1 18.5
v 18.5 3 18.5
v 19.5 0 18.5
v 19.5 3 18.5
v -1.5 0 15.5
v -1.5 3 15.5
v 1.5 0 15.5
v 1.5 3 15.5
v -18.5 0 12.5
v -18.5 3 12.5
v -15.5 0 12.5
v -15.5 3 12.5
v -14.5 0 12.5
v -14.5 1 12.5
v -12.5 1 12.5
v -12.5 3 12.5
v -11.5 0 12.5
v -11.5 3 12.5
v -1.5 0 11.5
v -1.5 3 11.5
v 1.5 0 11.5
v 1.5 3 11.5
v -1.5 0 7.5
v -1.5 1 7.5
v 1.5 0 7.5
v 1.5 1 7.5
v 13.5 0 6.5
v 13.5 3 6.5
v 16.5 0 6.5
v 16.5 3 6.5
v -1.5 1 5.5
v -1.5 3 5.5
v 1.5 1 5.5
v 1.5 3 5.5
v 13.5 0 2.5
v 13.5 1 2.5
v 16.5 0 2.5
v 16.5 1 2.5
v -6.5 0 0.5
v -6.5 3 0.5
v -3.5 0 0.5
v -3.5 3 0.5
v 13.5 1 0.5
v 13.5 3 0.5
v 16.5 1 0.5
v 16.5 3 0.5
v -6.5 0 -3.5
v -6.5 3 -3.5
v -3.5 0 -3.5
v -3.5 3 -3.5
v 13.5 0 -9.5
v 13.5 3 -9.5
v 16.5 0 -9.5
v 16.5 3 -9.5
v -15.5 0 -13.5
v -15.5 3 -13.5
v -14.5 1 -13.5
v -14.5 3 -13.5
v -12.5 0 -13.5
v -12.5 1 -13.5
v -11.5 0 -13.5
v -11.5 3 -13.5
v -8.5 0 -13.5
v -8.5 3 -13.5
v -7.5 0 -13.5
v -7.5 1 -13.5
v -5.5 1 -13.5
v -5.5 3 -13.5
v -4.5 0 -13.5
v -4.5 3 -13.5
v 13.5 0 -13.5
v 13.5 3 -13.5
v 16.5 0 -13.5
v 16.5 3 -13.5
v 13.5 0 -17.5
v 13.5 1 -17.5
v 16.5 0 -17.5
v 16.5 1 -17.5
v 13.5 1 -19.5
v 13.5 3 -19.5
v 16.5 1 -19.5
v 16.5 3 -19.5
v -22.5 0 -22.5
v -22.5 5 -22.5
v -12.5 5 -22.5
v -12.5 8 -22.5
v 22.5 0 -22.5
v 22.5 5 -22.5
v 25.5 5 -22.5
v 25.5 8 -22.5
v 26.5 5 -22.5
v 26.5 8 -22.5
v 27.5 5 -22.5
v 27.5 8 -22.5
v -25.5 5 -24.5
v -25.5 8 -24.5
v -12.5 5 -24.5
v -12.5 8 -24.5
v -25.5 5 25.5
v -25.5 8 25.5
v 25.5 5 25.5
v 25.5 8 25.5
v -22.5 0 22.5
v -22.5 5 22.5
v 22.5 0 22.5
v 22.5 5 22.5
v 8.5 0 15.5
v 8.5 3 15.5
v 9.5 1 15.5
v 9.5 3 15.5
v 11.5 0 15.5
v 11.5 1 15.5
v 12.5 0 15.5
v 12.5 3 15.5
v 15.5 0 15.5
v 15.5 3 15.5
v 16.5 0 15.5
v 16.5 1 15.5
v 18.5 1 15.5
v 18.5 3 15.5
v 19.5 0 15.5
v 19.5 3 15.5
v -1.5 1 14.5
v -1.5 3 14.5
v 1.5 1 14.5
v 1.5 3 14.5
v -1.5 0 12.5
v -1.5 1 12.5
v 1.5 0 12.5
v 1.5 1 12.5
v -18.5 0 9.5
v -18.5 3 9.5
v -15.5 0 9.5
v -15.5 3 9.5
v -14.5 0 9.5
v -14.5 1 9.5
v -12.5 1 9.5
v -12.5 3 9.5
v -11.5 0 9.5
v -11.5 3 9.5
v -1.5 0 8.5
v -1.5 3 8.5
v 1.5 0 8.5
v 1.5 3 8.5
v -1.5 0 4.5
v -1.5 3 4.5
v 1.5 0 4.5
v 1.5 3 4.5
v 13.5 0 3.5
v 13.5 3 3.5
v 16.5 0 3.5
v 16.5 3 3.5
v -6.5 1 -0.5
v -6.5 3 -0.5
v -3.5 1 -0.5
v -3.5 3 -0.5
v 13.5 0 -0.5
v 13.5 3 -0.5
v 16.5 0 -0.5
v 16.5 3 -0.5
v -6.5 0 -2.5
v -6.5 1 -2.5
v -3.5 0 -2.5
v -3.5 1 -2.5
v -6.5 0 -6.5
v -6.5 3 -6.5
v -3.5 0 -6.5
v -3.5 3 -6.5
v 13.5 1 -10.5
v 13.5 3 -10.5
v 16.5 1 -10.5
v 16.5 3 -10.5
v 13.5 0 -12.5
v 13.5 1 -12.5
v 16.5 0 -12.5
v 16.5 1 -12.5
v -15.5 0 -16.5
v -15.5 3 -16.5
v -14.5 1 -16.5
v -14.5 3 -16.5
v -12.5 0 -16.5
v -12.5 1 -16.5
v -11.5 0 -16.5
v -11.5 3 -16.5
v -8.5 0 -16.5
v -8.5 3 -16.5
v -7.5 0 -16.5
v -7.5 1 -16.5
v -5.5 1 -16.5
v -5.5 3 -16.5
v -4.5 0 -16.5
v -4.5 3 -16.5
v 13.5 0 -16.5
v 13.5 3 -16.5
v 16.5 0 -16.5
v 16.5 3 -16.5
v 13.5 0 -20.5
v 13.5 3 -20.5
v 16.5 0 -20.5
v 16.5 3 -20.5
v -26.5 5 -25.5
v -26.5 8 -25.5
v -12.5 5 -25.5
v -12.5 8 -25.5
v 27.5 5 -25.5
v 27.5 8 -25.5
v -27.5 0 -27.5
v -27.5 5 -27.5
v 27.5 0 -27.5
v 27.5 5 -27.5
v -27.5 0 27.5
v 27.5 0 27.5
v -22.5 0 22.5
v 22.5 0 22.5
v 8.5 0 18.5
v 11.5 0 18.5
v 12.5 0 18.5
v 15.5 0 18.5
v 16.5 0 18.5
v 19.5 0 18.5
v -1.5 0 15.5
v 1.5 0 15.5
v 8.5 0 15.5
v 11.5 0 15.5
v 12.5 0 15.5
v 15.5 0 15.5
v 16.5 0 15.5
v 19.5 0 15.5
v -18.5 0 12.5
v -15.5 0 12.5
v -14.5 0 12.5
v -11.5 0 12.5
v -1.5 0 12.5
v 1.5 0 12.5
v -1.5 0 11.5
v 1.5 0 11.5
v -18.5 0 9.5
v -15.5 0 9.5
v -14.5 0 9.5
v -11.5 0 9.5
v -1.5 0 8.5
v 1.5 0 8.5
v -1.5 0 7.5
v 1.5 0 7.5
v 13.5 0 6.5
v 16.5 0 6.5
v -1.5 0 4.5
v 1.5 0 4.5
v 13.5 0 3.5
v 16.5 0 3.5
v 13.5 0 2.5
v 16.5 0 2.5
v -6.5 0 0.5
v -3.5 0 0.5
v 13.5 0 -0.5
v 16.5 0 -0.5
v -6.5 0 -2.5
v -3.5 0 -2.5
v -6.5 0 -3.5
v -3.5 0 -3.5
v -6.5 0 -6.5
v -3.5 0 -6.5
v 13.5 0 -9.5
v 16.5 0 -9.5
v 13.5 0 -12.5
v 16.5 0 -12.5
v -15.5 0 -13.5
v -12.5 0 -13.5
v -11.5 0 -13.5
v -8.5 0 -13.5
v -7.5 0 -13.5
v -4.5 0 -13.5
v 13.5 0 -13.5
v 16.5 0 -13.5
v -15.5 0 -16.5
v -12.5 0 -16.5
v -11.5 0 -16.5
v -8.5 0 -16.5
v -7.5 0 -16.5
v -4.5 0 -16.5
v 13.5 0 -16.5
v 16.5 0 -16.5
v 13.5 0 -17.5
v 16.5 0 -17.5
v 13.5 0 -20.5
v 16.5 0 -20.5
v -22.5 0 -22.5
v 22.5 0 -22.5
v -27.5 0 -27.5
v 27.5 0 -27.5
v 9.5 1 18.5
v 11.5 1 18.5
v 16.5 1 18.5
v 18.5 1 18.5
v 9.5 1 15.5
v 11.5 1 15.5
v 16.5 1 15.5
v 18.5 1 15.5
v -1.5 1 14.5
v 1.5 1 14.5
v -14.5 1 12.5
v -12.5 1 12.5
v -1.5 1 12.5
v 1.5 1 12.5
v -14.5 1 9.5
v -12.5 1 9.5
v -1.5 1 7.5
v 1.5 1 7.5
v -1.5 1 5.5
v 1.5 1 5.5
v 13.5 1 2.5
v 16.5 1 2.5
v 13.5 1 0.5
v 16.5 1 0.5
v -6.5 1 -0.5
v -3.5 1 -0.5
v -6.5 1 -2.5
v -3.5 1 -2.5
v 13.5 1 -10.5
v 16.5 1 -10.5
v 13.5 1 -12.5
v 16.5 1 -12.5
v -14.5 1 -13.5
v -12.5 1 -13.5
v -7.5 1 -13.5
v -5.5 1 -13.5
v -14.5 1 -16.5
v -12.5 1 -16.5
v -7.5 1 -16.5
v -5.5 1 -16.5
v 13.5 1 -17.5
v 16.5 1 -17.5
v 13.5 1 -19.5
v 16.5 1 -19.5
v 8.5 3 18.5
v 9.5 3 18.5
v 12.5 3 18.5
v 15.5 3 18.5
v 18.5 3 18.5
v 19.5 3 18.5
v -1.5 3 15.5
v 1.5 3 15.5
v 8.5 3 15.5
v 9.5 3 15.5
v 12.5 3 15.5
v 15.5 3 15.5
v 18.5 3 15.5
v 19.5 3 15.5
v -1.5 3 14.5
v 1.5 3 14.5
v -18.5 3 12.5
v -15.5 3 12.5
v -12.5 3 12.5
v -11.5 3 12.5
v -1.5 3 11.5
v 1.5 3 11.5
v -18.5 3 9.5
v -15.5 3 9.5
v -12.5 3 9.5
v -11.5 3 9.5
v -1.5 3 8.5
v 1.5 3 8.5
v 13.5 3 6.5
v 16.5 3 6.5
v -1.5 3 5.5
v 1.5 3 5.5
v -1.5 3 4.5
v 1.5 3 4.5
v 13.5 3 3.5
v 16.5 3 3.5
v -6.5 3 0.5
v -3.5 3 0.5
v 13.5 3 0.5
v 16.5 3 0.5
v -6.5 3 -0.5
v -3.5 3 -0.5
v 13.5 3 -0.5
v 16.5 3 -0.5
v -6.5 3 -3.5
v -3.5 3 -3.5
v -6.5 3 -6.5
v -3.5 3 -6.5
v 13.5 3 -9.5
v 16.5 3 -9.5
v 13.5 3 -10.5
v 16.5 3 -10.5
v -15.5 3 -13.5
v -14.5 3 -13.5
v -11.5 3 -13.5
v -8.5 3 -13.5
v -5.5 3 -13.5
v -4.5 3 -13.5
v 13.5 3 -13.5
v 16.5 3 -13.5
v -15.5 3 -16.5
v -14.5 3 -16.5
v -11.5 3 -16.5
v -8.5 3 -16.5
v -5.5 3 -16.5
v -4.5 3 -16.5
v 13.5 3 -16.5
v 16.5 3 -16.5
v 13.5 3 -19.5
v 16.5 3 -19.5
v 13.5 3 -20.5
v 16.5 3 -20.5
v -27.5 5 27.5
v 27.5 5 27.5
v -26.5 5 26.5
v 26.5 5 26.5
v -25.5 5 25.5
v 25.5 5 25.5
v -22.5 5 22.5
v 22.5 5 22.5
v -22.5 5 -22.5
v -12.5 5 -22.5
v 22.5 5 -22.5
v 25.5 5 -22.5
v 26.5 5 -22.5
v 27.5 5 -22.5
v -25.5 5 -24.5
v -12.5 5 -24.5
v -26.5 5 -25.5
v -12.5 5 -25.5
v 27.5 5 -25.5
v -27.5 5 -27.5
v 27.5 5 -27.5
v -26.5 8 26.5
v 26.5 8 26.5
v -25.5 8 25.5
v 25.5 8 25.5
v -12.5 8 -22.5
v 25.5 8 -22.5
v 26.5 8 -22.5
v 27.5 8 -22.5
v -25.5 8 -24.5
v -12.5 8 -24.5
v -26.5 8 -25.5
v -12.5 8 -25.5
v 27.5 8 -25.5

# faces
f 3/1/1 2/1/1 1/1/1
f 4/1/1 2/1/1 3/1/1
f 7/3/1 6/3/1 5/3/1
f 8/3/1 6/3/1 7/3/1
f 11/4/1 10/4/1 9/4/1
f 12/4/1 10/4/1 11/4/1
f 15/2/1 14/2/1 13/2/1
f 16/2/1 14/2/1 15/2/1
f 19/2/1 18/2/1 17/2/1
f 20/2/1 18/2/1 19/2/1
f 23/2/1 22/2/1 21/2/1
f 24/2/1 22/2/1 23/2/1
f 27/1/1 26/1/1 25/1/1
f 28/1/1 26/1/1 27/1/1
f 31/4/1 30/4/1 29/4/1
f 32/4/1 30/4/1 31/4/1
f 35/2/1 34/2/1 33/2/1
f 36/2/1 34/2/1 35/2/1
f 41/2/1 38/2/1 37/2/1
f 42/2/1 38/2/1 41/2/1
f 43/2/1 41/2/1 37/2/1
f 44/2/1 41/2/1 43/2/1
f 45/4/1 40/4/1 39/4/1
f 46/4/1 40/4/1 45/4/1
f 49/2/1 48/2/1 47/2/1
f 50/2/1 48/2/1 49/2/1
f 57/2/1 52/2/1 51/2/1
f 58/2/1 52/2/1 57/2/1
f 59/2/1 56/2/1 55/2/1
f 60/2/1 56/2/1 59/2/1
f 61/2/1 57/2/1 51/2/1
f 62/2/1 57/2/1 61/2/1
f 63/4/1 54/4/1 53/4/1
f 64/4/1 54/4/1 63/4/1
f 65/2/1 56/2/1 60/2/1
f 66/2/1 56/2/1 65/2/1
f 69/2/1 68/2/1 67/2/1
f 70/2/1 68/2/1 69/2/1
f 73/4/1 72/4/1 71/4/1
f 74/4/1 72/4/1 73/4/1
f 85/2/1 78/2/1 77/2/1
f 86/2/1 78/2/1 85/2/1
f 87/2/1 80/2/1 79/2/1
f 88/2/1 80/2/1 87/2/1
f 89/2/1 84/2/1 83/2/1
f 90/2/1 84/2/1 89/2/1
f 91/4/1 76/4/1 75/4/1
f 92/4/1 76/4/1 91/4/1
f 93/2/1 78/2/1 86/2/1
f 94/2/1 78/2/1 93/2/1
f 95/2/1 87/2/1 79/2/1
f 96/2/1 87/2/1 95/2/1
f 97/4/1 82/4/1 81/4/1
f 98/4/1 82/4/1 97/4/1
f 99/2/1 84/2/1 90/2/1
f 100/2/1 84/2/1 99/2/1
f 103/2/1 102/2/1 101/2/1
f 104/2/1 102/2/1 103/2/1
f 107/2/1 106/2/1 105/2/1
f 108/2/1 106/2/1 107/2/1
f 111/1/1 110/1/1 109/1/1
f 112/1/1 110/1/1 111/1/1
f 115/3/1 114/3/1 113/3/1
f 116/3/1 114/3/1 115/3/1
f 117/3/2 118/3/2 119/3/2
f 119/3/2 118/3/2 120/3/2
f 121/1/2 122/1/2 123/1/2
f 123/1/2 122/1/2 124/1/2
f 125/4/2 126/4/2 127/4/2
f 127/4/2 126/4/2 128/4/2
f 129/2/2 130/2/2 131/2/2
f 131/2/2 130/2/2 132/2/2
f 133/2/2 134/2/2 135/2/2
f 135/2/2 134/2/2 136/2/2
f 137/2/2 138/2/2 139/2/2
f 139/2/2 138/2/2 140/2/2
f 141/4/2 142/4/2 143/4/2
f 143/4/2 142/4/2 144/4/2
f 145/2/2 146/2/2 147/2/2
f 147/2/2 146/2/2 148/2/2
f 149/2/2 150/2/2 153/2/2
f 153/2/2 150/2/2 154/2/2
f 149/2/2 153/2/2 155/2/2
f 155/2/2 153/2/2 156/2/2
f 151/4/2 152/4/2 157/4/2
f 157/4/2 152/4/2 158/4/2
f 159/2/2 160/2/2 165/2/2
f 165/2/2 160/2/2 166/2/2
f 163/2/2 164/2/2 167/2/2
f 167/2/2 164/2/2 168/2/2
f 159/2/2 165/2/2 169/2/2
f 169/2/2 165/2/2 170/2/2
f 161/4/2 162/4/2 171/4/2
f 171/4/2 162/4/2 172/4/2
f 168/2/2 164/2/2 173/2/2
f 173/2/2 164/2/2 174/2/2
f 175/2/2 176/2/2 177/2/2
f 177/2/2 176/2/2 178/2/2
f 179/2/2 180/2/2 181/2/2
f 181/2/2 180/2/2 182/2/2
f 183/4/2 184/4/2 185/4/2
f 185/4/2 184/4/2 186/4/2
f 189/2/2 190/2/2 197/2/2
f 197/2/2 190/2/2 198/2/2
f 191/2/2 192/2/2 199/2/2
f 199/2/2 192/2/2 200/2/2
f 195/2/2 196/2/2 201/2/2
f 201/2/2 196/2/2 202/2/2
f 187/4/2 188/4/2 203/4/2
f 203/4/2 188/4/2 204/4/2
f 198/2/2 190/2/2 205/2/2
f 205/2/2 190/2/2 206/2/2
f 191/2/2 199/2/2 207/2/2
f 207/2/2 199/2/2 208/2/2
f 193/4/2 194/4/2 209/4/2
f 209/4/2 194/4/2 210/4/2
f 202/2/2 196/2/2 211/2/2
f 211/2/2 196/2/2 212/2/2
f 213/2/2 214/2/2 215/2/2
f 215/2/2 214/2/2 216/2/2
f 217/3/2 218/3/2 219/3/2
f 219/3/2 218/3/2 220/3/2
f 221/1/2 222/1/2 223/1/2
f 223/1/2 222/1/2 224/1/2
f 224/1/2 222/1/2 225/1/2
f 225/1/2 222/1/2 226/1/2
f 224/1/2 225/1/2 227/1/2
f 227/1/2 225/1/2 228/1/2
f 231/1/3 230/1/3 229/1/3
f 232/1/3 230/1/3 231/1/3
f 235/3/3 234/3/3 233/3/3
f 236/3/3 234/3/3 235/3/3
f 239/2/3 238/2/3 237/2/3
f 240/2/3 238/2/3 239/2/3
f 241/2/3 239/2/3 237/2/3
f 242/2/3 239/2/3 241/2/3
f 245/4/3 244/4/3 243/4/3
f 246/4/3 244/4/3 245/4/3
f 249/2/3 248/2/3 247/2/3
f 251/2/3 249/2/3 247/2/3
f 251/2/3 250/2/3 249/2/3
f 252/2/3 250/2/3 251/2/3
f 255/2/3 254/2/3 253/2/3
f 256/2/3 254/2/3 255/2/3
f 259/4/3 258/4/3 257/4/3
f 260/4/3 258/4/3 259/4/3
f 263/2/3 262/2/3 261/2/3
f 265/2/3 263/2/3 261/2/3
f 265/2/3 264/2/3 263/2/3
f 266/2/3 264/2/3 265/2/3
f 269/4/3 268/4/3 267/4/3
f 270/4/3 268/4/3 269/4/3
f 273/2/3 272/2/3 271/2/3
f 274/2/3 272/2/3 273/2/3
f 277/4/3 276/4/3 275/4/3
f 278/4/3 276/4/3 277/4/3
f 281/2/3 280/2/3 279/2/3
f 282/2/3 280/2/3 281/2/3
f 285/2/3 284/2/3 283/2/3
f 286/2/3 284/2/3 285/2/3
f 289/2/3 288/2/3 287/2/3
f 290/2/3 288/2/3 289/2/3
f 293/2/3 292/2/3 291/2/3
f 294/2/3 292/2/3 293/2/3
f 297/4/3 296/4/3 295/4/3
f 298/4/3 296/4/3 297/4/3
f 301/2/3 300/2/3 299/2/3
f 302/2/3 300/2/3 301/2/3
f 305/2/3 304/2/3 303/2/3
f 306/2/3 304/2/3 305/2/3
f 307/2/3 305/2/3 303/2/3
f 308/2/3 305/2/3 307/2/3
f 311/4/3 310/4/3 309/4/3
f 312/4/3 310/4/3 311/4/3
f 315/2/3 314/2/3 313/2/3
f 317/2/3 315/2/3 313/2/3
f 317/2/3 316/2/3 315/2/3
f 318/2/3 316/2/3 317/2/3
f 321/4/3 320/4/3 319/4/3
f 322/4/3 320/4/3 321/4/3
f 325/2/3 324/2/3 323/2/3
f 326/2/3 324/2/3 325/2/3
f 329/2/3 328/2/3 327/2/3
f 330/2/3 328/2/3 329/2/3
f 333/1/3 332/1/3 331/1/3
f 335/1/3 333/1/3 331/1/3
f 335/1/3 334/1/3 333/1/3
f 336/1/3 334/1/3 335/1/3
f 337/1/3 334/1/3 336/1/3
f 338/1/3 334/1/3 337/1/3
f 341/1/3 340/1/3 339/1/3
f 342/1/3 340/1/3 341/1/3
f 345/3/3 344/3/3 343/3/3
f 346/3/3 344/3/3 345/3/3
f 347/3/4 348/3/4 349/3/4
f 349/3/4 348/3/4 350/3/4
f 351/1/4 352/1/4 353/1/4
f 353/1/4 352/1/4 354/1/4
f 355/2/4 356/2/4 357/2/4
f 357/2/4 356/2/4 358/2/4
f 355/2/4 357/2/4 359/2/4
f 359/2/4 357/2/4 360/2/4
f 361/4/4 362/4/4 363/4/4
f 363/4/4 362/4/4 364/4/4
f 365/2/4 366/2/4 367/2/4
f 365/2/4 367/2/4 369/2/4
f 367/2/4 368/2/4 369/2/4
f 369/2/4 368/2/4 370/2/4
f 371/2/4 372/2/4 373/2/4
f 373/2/4 372/2/4 374/2/4
f 375/2/4 376/2/4 377/2/4
f 377/2/4 376/2/4 378/2/4
f 379/4/4 380/4/4 381/4/4
f 381/4/4 380/4/4 382/4/4
f 383/2/4 384/2/4 385/2/4
f 383/2/4 385/2/4 387/2/4
f 385/2/4 386/2/4 387/2/4
f 387/2/4 386/2/4 388/2/4
f 389/4/4 390/4/4 391/4/4
f 391/4/4 390/4/4 392/4/4
f 393/2/4 394/2/4 395/2/4
f 395/2/4 394/2/4 396/2/4
f 397/4/4 398/4/4 399/4/4
f 399/4/4 398/4/4 400/4/4
f 401/2/4 402/2/4 403/2/4
f 403/2/4 402/2/4 404/2/4
f 405/2/4 406/2/4 407/2/4
f 407/2/4 406/2/4 408/2/4
f 409/2/4 410/2/4 411/2/4
f 411/2/4 410/2/4 412/2/4
f 413/4/4 414/4/4 415/4/4
f 415/4/4 414/4/4 416/4/4
f 417/2/4 418/2/4 419/2/4
f 419/2/4 418/2/4 420/2/4
f 421/2/4 422/2/4 423/2/4
f 423/2/4 422/2/4 424/2/4
f 425/2/4 426/2/4 427/2/4
f 427/2/4 426/2/4 428/2/4
f 425/2/4 427/2/4 429/2/4
f 429/2/4 427/2/4 430/2/4
f 431/4/4 432/4/4 433/4/4
f 433/4/4 432/4/4 434/4/4
f 435/2/4 436/2/4 437/2/4
f 435/2/4 437/2/4 439/2/4
f 437/2/4 438/2/4 439/2/4
f 439/2/4 438/2/4 440/2/4
f 441/4/4 442/4/4 443/4/4
f 443/4/4 442/4/4 444/4/4
f 445/2/4 446/2/4 447/2/4
f 447/2/4 446/2/4 448/2/4
f 449/3/4 450/3/4 451/3/4
f 451/3/4 450/3/4 452/3/4
f 451/1/4 452/1/4 453/1/4
f 453/1/4 452/1/4 454/1/4
f 455/1/4 456/1/4 457/1/4
f 457/1/4 456/1/4 458/1/4
f 461/1/5 460/1/5 459/1/5
f 462/1/5 460/1/5 461/1/5
f 471/2/5 464/2/5 463/2/5
f 472/2/5 464/2/5 471/2/5
f 473/4/5 466/4/5 465/4/5
f 474/4/5 466/4/5 473/4/5
f 475/2/5 468/2/5 467/2/5
f 476/2/5 468/2/5 475/2/5
f 481/2/5 470/2/5 469/2/5
f 482/2/5 470/2/5 481/2/5
f 485/4/5 478/4/5 477/4/5
f 486/4/5 478/4/5 485/4/5
f 487/2/5 480/2/5 479/2/5
f 488/2/5 480/2/5 487/2/5
f 489/4/5 484/4/5 483/4/5
f 490/4/5 484/4/5 489/4/5
f 495/2/5 492/2/5 491/2/5
f 496/2/5 492/2/5 495/2/5
f 497/4/5 494/4/5 493/4/5
f 498/4/5 494/4/5 497/4/5
f 503/2/5 500/2/5 499/2/5
f 504/2/5 500/2/5 503/2/5
f 505/2/5 502/2/5 501/2/5
f 506/2/5 502/2/5 505/2/5
f 509/4/5 508/4/5 507/4/5
f 510/4/5 508/4/5 509/4/5
f 513/2/5 512/2/5 511/2/5
f 514/2/5 512/2/5 513/2/5
f 523/2/5 516/2/5 515/2/5
f 524/2/5 516/2/5 523/2/5
f 525/4/5 518/4/5 517/4/5
f 526/4/5 518/4/5 525/4/5
f 527/2/5 520/2/5 519/2/5
f 528/2/5 520/2/5 527/2/5
f 529/4/5 522/4/5 521/4/5
f 530/4/5 522/4/5 529/4/5
f 533/2/5 532/2/5 531/2/5
f 534/2/5 532/2/5 533/2/5
f 535/1/5 461/1/5 459/1/5
f 536/1/5 460/1/5 462/1/5
f 537/1/5 535/1/5 459/1/5
f 537/1/5 536/1/5 535/1/5
f 538/1/5 460/1/5 536/1/5
f 538/1/5 536/1/5 537/1/5
f 539/2/6 540/2/6 543/2/6
f 543/2/6 540/2/6 544/2/6
f 541/2/6 542/2/6 545/2/6
f 545/2/6 542/2/6 546/2/6
f 547/2/6 548/2/6 551/2/6
f 551/2/6 548/2/6 552/2/6
f 549/2/6 550/2/6 553/2/6
f 553/2/6 550/2/6 554/2/6
f 555/2/6 556/2/6 557/2/6
f 557/2/6 556/2/6 558/2/6
f 559/2/6 560/2/6 561/2/6
f 561/2/6 560/2/6 562/2/6
f 563/2/6 564/2/6 565/2/6
f 565/2/6 564/2/6 566/2/6
f 567/2/6 568/2/6 569/2/6
f 569/2/6 568/2/6 570/2/6
f 571/2/6 572/2/6 575/2/6
f 575/2/6 572/2/6 576/2/6
f 573/2/6 574/2/6 577/2/6
f 577/2/6 574/2/6 578/2/6
f 579/2/6 580/2/6 581/2/6
f 581/2/6 580/2/6 582/2/6
f 583/2/6 584/2/6 591/2/6
f 591/2/6 584/2/6 592/2/6
f 585/4/6 586/4/6 593/4/6
f 593/4/6 586/4/6 594/4/6
f 587/2/6 588/2/6 595/2/6
f 595/2/6 588/2/6 596/2/6
f 589/2/6 590/2/6 597/2/6
f 597/2/6 590/2/6 598/2/6
f 599/4/6 600/4/6 605/4/6
f 605/4/6 600/4/6 606/4/6
f 601/2/6 602/2/6 607/2/6
f 607/2/6 602/2/6 608/2/6
f 603/4/6 604/4/6 609/4/6
f 609/4/6 604/4/6 610/4/6
f 613/2/6 614/2/6 615/2/6
f 615/2/6 614/2/6 616/2/6
f 611/4/6 612/4/6 617/4/6
f 617/4/6 612/4/6 618/4/6
f 619/2/6 620/2/6 623/2/6
f 623/2/6 620/2/6 624/2/6
f 621/2/6 622/2/6 625/2/6
f 625/2/6 622/2/6 626/2/6
f 627/4/6 628/4/6 629/4/6
f 629/4/6 628/4/6 630/4/6
f 631/2/6 632/2/6 633/2/6
f 633/2/6 632/2/6 634/2/6
f 635/2/6 636/2/6 643/2/6
f 643/2/6 636/2/6 644/2/6
f 637/4/6 638/4/6 645/4/6
f 645/4/6 638/4/6 646/4/6
f 639/2/6 640/2/6 647/2/6
f 647/2/6 640/2/6 648/2/6
f 641/4/6 642/4/6 649/4/6
f 649/4/6 642/4/6 650/4/6
f 651/2/6 652/2/6 653/2/6
f 653/2/6 652/2/6 654/2/6
f 655/1/6 656/1/6 657/1/6
f 657/1/6 656/1/6 658/1/6
f 659/1/6 660/1/6 661/1/6
f 661/1/6 660/1/6 662/1/6
f 659/1/6 661/1/6 663/1/6
f 662/1/6 660/1/6 665/1/6
f 665/1/6 660/1/6 666/1/6
f 658/1/6 656/1/6 667/1/6
f 667/1/6 656/1/6 668/1/6
f 663/1/6 664/1/6 669/1/6
f 659/1/6 663/1/6 669/1/6
f 669/1/6 664/1/6 670/1/6
f 655/1/6 657/1/6 671/1/6
f 671/1/6 672/1/6 674/1/6
f 672/1/6 673/1/6 674/1/6
f 655/1/6 671/1/6 674/1/6
f 674/1/6 673/1/6 675/1/6
f 676/3/6 677/3/6 678/3/6
f 678/3/6 677/3/6 679/3/6
f 679/3/6 677/3/6 681/3/6
f 681/3/6 677/3/6 682/3/6
f 676/3/6 678/3/6 684/3/6
f 682/1/6 683/1/6 685/1/6
f 680/1/6 681/1/6 685/1/6
f 681/1/6 682/1/6 685/1/6
f 676/3/6 684/3/6 686/3/6
f 684/3/6 685/3/6 686/3/6
f 685/1/6 683/1/6 687/1/6
f 686/3/6 685/3/6 687/3/6
f 687/1/6 683/1/6 688/1/6
