# MagicaVoxel @ Ephtracy

# material
mtllib gate.mtl
usemtl palette

# normals
vn -1 0 0
vn 1 0 0
vn 0 0 1
vn 0 0 -1
vn 0 -1 0
vn 0 1 0

# texcoords
vt 0.408203 0.5
vt 0.412109 0.5

# verts
v -30 0 5
v -30 0 -5
v -30 45 5
v -30 45 -5
v 25 0 5
v 25 0 -5
v 25 30 5
v 25 30 -0
v 25 40 -0
v 25 41 -0
v 25 41 -5
v -25 0 5
v -25 0 -5
v -25 30 5
v -25 30 -0
v -25 40 -0
v -25 41 -0
v -25 41 -5
v 30 0 5
v 30 0 -5
v 30 45 5
v 30 45 -5
v -30 0 5
v -30 45 5
v -25 0 5
v -25 30 5
v -25 40 5
v 25 0 5
v 25 30 5
v 25 40 5
v 30 0 5
v 30 45 5
v -25 30 -0
v -25 40 -0
v -25 41 -0
v 25 30 -0
v 25 40 -0
v 25 41 -0
v -30 0 -5
v -30 45 -5
v -25 0 -5
v -25 41 -5
v 25 0 -5
v 25 41 -5
v 30 0 -5
v 30 45 -5
v -30 0 5
v -25 0 5
v 25 0 5
v 30 0 5
v -30 0 -5
v -25 0 -5
v 25 0 -5
v 30 0 -5
v -25 30 5
v 25 30 5
v -25 30 -0
v 25 30 -0
v -25 41 -0
v 25 41 -0
v -25 41 -5
v 25 41 -5
v -30 45 5
v 30 45 5
v -30 45 -5
v 30 45 -5

# faces
f 3/1/1 2/1/1 1/1/1
f 4/1/1 2/1/1 3/1/1
f 7/1/1 6/1/1 5/1/1
f 8/1/1 6/1/1 7/1/1
f 9/1/1 6/1/1 8/1/1
f 10/1/1 6/1/1 9/1/1
f 11/1/1 6/1/1 10/1/1
f 12/1/2 13/1/2 14/1/2
f 14/1/2 13/1/2 15/1/2
f 15/1/2 13/1/2 16/1/2
f 16/1/2 13/1/2 17/1/2
f 17/1/2 13/1/2 18/1/2
f 19/1/2 20/1/2 21/1/2
f 21/1/2 20/1/2 22/1/2
f 25/1/3 24/1/3 23/1/3
f 26/1/3 24/1/3 25/1/3
f 27/1/3 24/1/3 26/1/3
f 29/2/3 27/2/3 26/2/3
f 30/1/3 24/1/3 27/1/3
f 30/2/3 27/2/3 29/2/3
f 31/1/3 29/1/3 28/1/3
f 31/1/3 30/1/3 29/1/3
f 32/1/3 24/1/3 30/1/3
f 32/1/3 30/1/3 31/1/3
f 33/2/4 34/2/4 36/2/4
f 34/1/4 35/1/4 37/1/4
f 36/2/4 34/2/4 37/2/4
f 37/1/4 35/1/4 38/1/4
f 39/1/4 40/1/4 41/1/4
f 41/1/4 40/1/4 42/1/4
f 42/1/4 40/1/4 44/1/4
f 43/1/4 44/1/4 45/1/4
f 44/1/4 40/1/4 46/1/4
f 45/1/4 44/1/4 46/1/4
f 51/1/5 48/1/5 47/1/5
f 52/1/5 48/1/5 51/1/5
f 53/1/5 50/1/5 49/1/5
f 54/1/5 50/1/5 53/1/5
f 57/2/5 56/2/5 55/2/5
f 58/2/5 56/2/5 57/2/5
f 61/1/5 60/1/5 59/1/5
f 62/1/5 60/1/5 61/1/5
f 63/1/6 64/1/6 65/1/6
f 65/1/6 64/1/6 66/1/6
