# MagicaVoxel @ Ephtracy

# material
mtllib small_storage_buildings.mtl
usemtl palette

# normals
vn -1 0 0
vn 1 0 0
vn 0 0 1
vn 0 0 -1
vn 0 -1 0
vn 0 1 0

# texcoords
vt 0.181641 0.5
vt 0.185547 0.5
vt 0.216797 0.5
vt 0.248047 0.5

# verts
v -36.5 0 16
v -36.5 0 -16
v -36.5 22 16
v -36.5 22 -16
v -2.5 0 -5
v -2.5 0 -16
v -2.5 19 16
v -2.5 19 -5
v -2.5 22 16
v -2.5 22 -16
v 36.5 0 16
v 36.5 0 -5
v 36.5 19 16
v 36.5 19 -5
v -36.5 0 16
v -36.5 22 16
v -35.5 10 16
v -35.5 15 16
v -25.5 10 16
v -25.5 15 16
v -15.5 0 16
v -15.5 16 16
v -5.5 0 16
v -5.5 16 16
v -2.5 0 16
v -2.5 19 16
v -2.5 22 16
v -0.5 7 16
v -0.5 13 16
v 11.5 7 16
v 11.5 13 16
v 21.5 7 16
v 21.5 13 16
v 34.5 7 16
v 34.5 13 16
v 36.5 0 16
v 36.5 19 16
v -2.5 0 -5
v -2.5 19 -5
v 36.5 0 -5
v 36.5 19 -5
v -36.5 0 -16
v -36.5 22 -16
v -2.5 0 -16
v -2.5 22 -16
v -36.5 0 16
v -15.5 0 16
v -5.5 0 16
v -2.5 0 16
v 36.5 0 16
v -15.5 0 15
v -5.5 0 15
v -2.5 0 -5
v 36.5 0 -5
v -36.5 0 -16
v -2.5 0 -16
v -2.5 19 16
v 36.5 19 16
v -0.5 19 13
v 7.5 19 13
v 11.5 19 13
v 19.5 19 13
v 24.5 19 13
v 32.5 19 13
v -0.5 19 -2
v 7.5 19 -2
v 11.5 19 -2
v 19.5 19 -2
v 24.5 19 -2
v 32.5 19 -2
v -2.5 19 -5
v 36.5 19 -5
v -36.5 22 16
v -2.5 22 16
v -32.5 22 9
v -23.5 22 9
v -15.5 22 9
v -6.5 22 9
v -32.5 22 -11
v -23.5 22 -11
v -15.5 22 -11
v -6.5 22 -11
v -36.5 22 -16
v -2.5 22 -16

# faces
f 3/3/1 2/3/1 1/3/1
f 4/3/1 2/3/1 3/3/1
f 5/3/2 6/3/2 8/3/2
f 7/3/2 8/3/2 9/3/2
f 8/3/2 6/3/2 10/3/2
f 9/3/2 8/3/2 10/3/2
f 11/4/2 12/4/2 13/4/2
f 13/4/2 12/4/2 14/4/2
f 17/3/3 16/3/3 15/3/3
f 18/3/3 16/3/3 17/3/3
f 19/3/3 17/3/3 15/3/3
f 19/1/3 18/1/3 17/1/3
f 20/3/3 16/3/3 18/3/3
f 20/1/3 18/1/3 19/1/3
f 21/3/3 19/3/3 15/3/3
f 21/3/3 20/3/3 19/3/3
f 22/3/3 16/3/3 20/3/3
f 22/3/3 20/3/3 21/3/3
f 23/1/3 22/1/3 21/1/3
f 24/3/3 16/3/3 22/3/3
f 24/1/3 22/1/3 23/1/3
f 25/3/3 24/3/3 23/3/3
f 26/3/3 16/3/3 24/3/3
f 26/3/3 24/3/3 25/3/3
f 27/3/3 16/3/3 26/3/3
f 28/4/3 26/4/3 25/4/3
f 29/4/3 26/4/3 28/4/3
f 30/4/3 28/4/3 25/4/3
f 30/1/3 29/1/3 28/1/3
f 31/4/3 26/4/3 29/4/3
f 31/1/3 29/1/3 30/1/3
f 32/4/3 30/4/3 25/4/3
f 32/4/3 31/4/3 30/4/3
f 33/4/3 26/4/3 31/4/3
f 33/4/3 31/4/3 32/4/3
f 34/4/3 32/4/3 25/4/3
f 34/1/3 33/1/3 32/1/3
f 35/4/3 26/4/3 33/4/3
f 35/1/3 33/1/3 34/1/3
f 36/4/3 34/4/3 25/4/3
f 36/4/3 35/4/3 34/4/3
f 37/4/3 26/4/3 35/4/3
f 37/4/3 35/4/3 36/4/3
f 38/4/4 39/4/4 40/4/4
f 40/4/4 39/4/4 41/4/4
f 42/3/4 43/3/4 44/3/4
f 44/3/4 43/3/4 45/3/4
f 51/3/5 47/3/5 46/3/5
f 51/1/5 48/1/5 47/1/5
f 52/3/5 49/3/5 48/3/5
f 52/1/5 48/1/5 51/1/5
f 53/4/5 50/4/5 49/4/5
f 53/3/5 49/3/5 52/3/5
f 53/3/5 52/3/5 51/3/5
f 54/4/5 50/4/5 53/4/5
f 55/3/5 51/3/5 46/3/5
f 55/3/5 53/3/5 51/3/5
f 56/3/5 53/3/5 55/3/5
f 57/4/6 58/4/6 59/4/6
f 59/4/6 58/4/6 60/4/6
f 60/4/6 58/4/6 61/4/6
f 61/4/6 58/4/6 62/4/6
f 62/4/6 58/4/6 63/4/6
f 63/4/6 58/4/6 64/4/6
f 57/4/6 59/4/6 65/4/6
f 59/2/6 60/2/6 65/2/6
f 60/4/6 61/4/6 66/4/6
f 65/2/6 60/2/6 66/2/6
f 61/2/6 62/2/6 67/2/6
f 66/4/6 61/4/6 67/4/6
f 62/4/6 63/4/6 68/4/6
f 67/2/6 62/2/6 68/2/6
f 63/2/6 64/2/6 69/2/6
f 68/4/6 63/4/6 69/4/6
f 64/4/6 58/4/6 70/4/6
f 69/2/6 64/2/6 70/2/6
f 68/4/6 69/4/6 71/4/6
f 67/4/6 68/4/6 71/4/6
f 69/4/6 70/4/6 71/4/6
f 66/4/6 67/4/6 71/4/6
f 65/4/6 66/4/6 71/4/6
f 57/4/6 65/4/6 71/4/6
f 70/4/6 58/4/6 72/4/6
f 71/4/6 70/4/6 72/4/6
f 73/3/6 74/3/6 75/3/6
f 75/3/6 74/3/6 76/3/6
f 76/3/6 74/3/6 77/3/6
f 77/3/6 74/3/6 78/3/6
f 73/3/6 75/3/6 79/3/6
f 75/2/6 76/2/6 79/2/6
f 76/3/6 77/3/6 80/3/6
f 79/2/6 76/2/6 80/2/6
f 77/2/6 78/2/6 81/2/6
f 80/3/6 77/3/6 81/3/6
f 78/3/6 74/3/6 82/3/6
f 81/2/6 78/2/6 82/2/6
f 80/3/6 81/3/6 83/3/6
f 79/3/6 80/3/6 83/3/6
f 81/3/6 82/3/6 83/3/6
f 73/3/6 79/3/6 83/3/6
f 82/3/6 74/3/6 84/3/6
f 83/3/6 82/3/6 84/3/6
